<?xml version="1.0" encoding="UTF-8" standalone="no"?>
<svg
   width="3045"
   height="3045"
   version="1.1"
   id="svg81"
   xml:space="preserve"
   xmlns="http://www.w3.org/2000/svg"
   xmlns:svg="http://www.w3.org/2000/svg"><defs
     id="defs8"><linearGradient
       id="gradient_0-6"
       gradientUnits="userSpaceOnUse"
       x1="474.68741"
       y1="204.21555"
       x2="557.19629"
       y2="174.47673"
       gradientTransform="matrix(2.97363,0,0,2.97363,0.001,0)"><stop
         offset="0"
         stop-color="#DECEB0"
         id="stop12" /><stop
         offset="1"
         stop-color="#EFEDD3"
         id="stop13" /></linearGradient></defs><defs
     id="defs16" /><defs
     id="defs22" /><path
     fill="#f6c195"
     d="m 1686.855,563.40476 c -0.1189,-9.05173 -2.9349,-10.02709 -6.7174,-17.78826 -2.2599,-4.63589 -4.401,-8.01096 -2.7209,-12.97097 5.4983,4.76078 14.776,11.60013 15.1893,19.48917 0.2587,4.94812 -2.4086,8.02582 -5.751,11.27006 z"
     id="path2-3"
     style="stroke-width:2.97363" /><path
     fill="#f9c74f"
     d="m 2129.8813,1401.6859 c 19.7063,3.5059 105.9742,20.5865 113.4024,32.9924 6.2922,10.5029 8.0347,46.7574 3.6516,58.0364 -5.9622,15.3469 -22.0435,31.577 -33.3909,43.4982 -4.5378,16.2152 -16.123,95.7123 -21.2139,100.0746 -4.508,0.8237 -8.6651,1.124 -13.2445,1.1746 -0.3063,-15.3618 13.7262,-65.6251 16.5661,-85.593 -3.5327,1.3857 -9.6197,3.7854 -13.3962,2.9171 -8.7247,-2.0072 -17.1014,-17.5474 -22.1209,-24.4492 -9.7803,-17.5057 -29.6382,-40.4175 -46.2013,-51.637 4.2612,-25.5286 27.295,-40.8309 16.8724,-74.8969 z"
     id="path3-9"
     style="stroke-width:2.97363" /><path
     fill="#43aa8b"
     d="m 2187.9325,1461.5302 c 5.1265,-3.6754 10.491,-7.7165 17.1608,-7.324 5.421,0.3152 9.9706,3.833 12.864,8.234 1.1626,1.7693 2.0458,3.7051 2.9647,5.6052 1.1567,23.12 -2.4979,45.6185 -7.3776,68.1675 -4.5378,16.2152 -16.123,95.7123 -21.2139,100.0746 -4.508,0.8237 -8.6651,1.124 -13.2445,1.1746 -0.3063,-15.3618 13.7262,-65.6251 16.5661,-85.593 0.6125,-3.1074 2.1231,-5.7688 3.4761,-8.6176 -3.5654,-21.2228 -16.4293,-37.0574 -22.5312,-57.174 2.3165,-9.0547 6.6074,-16.6136 11.3355,-24.5473 z"
     id="path4-2"
     style="stroke-width:2.97363" /><path
     fill="#2d6a52"
     d="m 2187.9325,1461.5302 c 7.4311,1.1924 20.9403,0.3241 26.162,6.2655 1.5403,1.7514 2.1143,3.7943 2.7566,5.9651 -0.2677,17.7555 -6.5985,55.9429 -17.7229,69.4907 -3.5654,-21.2228 -16.4293,-37.0574 -22.5312,-57.174 2.3165,-9.0547 6.6074,-16.6136 11.3355,-24.5473 z"
     id="path5-0"
     style="stroke-width:2.97363" /><path
     fill="#2d6a52"
     d="m 1772.3856,840.16645 c 16.2746,67.09401 28.6301,135.17824 41.1966,203.05435 4.3356,23.4173 22.9446,138.7704 30.4054,152.9992 -10.4226,8.4986 -68.783,27.066 -85.5097,33.5306 -2.3521,-21.6153 0,-74.2456 -5.3198,-90.3745 -1.8913,-20.6757 2.4116,-44.7888 3.8032,-65.7143 4.0055,-60.1506 10.4107,-121.07132 11.6596,-181.28138 0.3063,-14.74921 -3.9638,-39.81988 3.7647,-52.21397 z"
     id="path6-3"
     style="stroke-width:2.97363" /><path
     fill="#f3722c"
     d="m 669.4602,534.17397 c -4.7607,-15.63237 -13.9552,-30.35184 -16.4203,-46.60273 -1.8972,-12.49222 1.1686,-43.59341 9.6167,-53.51344 1.5106,-1.77229 2.8606,-1.15972 4.9897,-1.20432 10.7081,7.29431 6.3993,38.31819 7.562,50.57847 3.7914,39.97451 22.998,43.63505 34.7349,72.18189 7.2557,17.65147 8.9864,35.55867 17.9965,52.90088 -14.0029,11.28195 -48.6397,42.41586 -62.9905,48.96974 -6.8334,-9.24799 -18.5613,-17.39276 -27.3008,-25.02904 -21.4994,-18.78442 -43.5548,-37.22688 -64.3851,-56.74578 -15.0109,-14.06527 -27.9016,-32.76643 -43.6677,-45.52925 -9.6257,-7.79091 -26.0044,-11.58527 -33.2601,-21.88592 -1.4333,-2.03099 -0.8861,-1.73957 -0.5412,-4.55857 5.1652,-2.56327 12.3406,-1.88231 18.0321,-2.03397 -13.7976,-9.83379 -45.8415,-29.13562 -50.3971,-45.4222 0.5353,-1.47789 0.5501,-2.96768 2.1143,-3.65161 4.9957,-2.18265 12.8907,0.68096 17.8269,2.31645 14.4518,4.78755 27.4882,12.22162 41.4524,18.04102 48.3393,20.15824 96.8184,39.76338 144.6373,61.18838 z"
     id="path7-1"
     style="stroke-width:2.97363" /><path
     fill="#f9c74f"
     d="m 1496.9858,446.56489 c 35.8233,-33.91723 98.6085,-37.14956 145.2172,-38.00894 4.4902,11.40387 10.5861,30.99414 20.0393,39.29057 1.8883,4.12442 2.8101,4.92433 1.8407,9.48291 -4.1928,3.51185 -10.4226,3.55943 -15.7008,4.24931 l -7.7493,2.45027 c -2.3462,4.70726 -4.9213,9.06363 -5.4447,14.38345 4.3713,-3.69622 7.2349,-5.12356 13.1762,-4.61507 q 0.9188,0.0743 1.8288,0.23789 0.9069,0.16652 1.7931,0.41928 0.8861,0.25573 1.7455,0.5977 0.8564,0.34197 1.6741,0.7672 0.8178,0.42523 1.5909,0.93074 0.7702,0.50552 1.4898,1.08835 0.7167,0.57986 1.3738,1.22811 0.6542,0.64825 1.243,1.35895 c 1.7336,2.12912 1.2281,1.45411 1.1478,4.38908 -3.0717,2.55732 -6.2178,2.94687 -10.0895,2.52758 -4.7043,-0.50849 -9.7089,-2.1648 -14.2764,-3.36615 3.946,8.99524 7.5114,18.80227 12.403,27.28901 7.9247,6.72932 20.9909,13.80061 27.1284,21.3804 -1.6801,4.96001 0.461,8.33508 2.7209,12.97097 3.7825,7.76117 6.5985,8.73653 6.7174,17.78826 -4.9986,4.16308 -10.8032,4.13929 -17.0032,3.50888 -7.7701,-0.79099 -14.9573,-3.43752 -22.0435,-6.58064 -6.988,2.10235 -14.0444,3.63377 -19.8519,8.23398 l -4.1185,-3.07176 -6.432,-1.78121 c -8.6473,3.158 -12.2246,19.78654 -22.2071,25.16286 -9.7386,5.24251 -19.846,1.76336 -29.6738,-1.10619 -9.6792,-8.70679 -13.417,-18.24322 -21.3239,-27.82723 -9.5573,-11.58526 -22.8999,-20.46452 -32.0379,-32.31444 -4.2166,-5.4685 -7.1129,-13.59841 -10.7854,-19.69435 -5.5815,-9.25988 -13.072,-17.47008 -20.1404,-25.60295 7.0803,-11.59716 11.96,-22.70664 15.7484,-35.76682 z"
     id="path8-1"
     style="stroke-width:2.97363" /><path
     fill="#f3dfc5"
     d="m 1579.84,488.35628 c 1.6118,0.13679 3.0748,-0.30926 4.065,1.18351 1.6533,2.48892 1.463,6.19109 1.6652,9.0993 -4.1363,1.60576 -6.9404,2.51867 -11.4574,2.65546 l -1.5076,-1.51953 c 0.7077,-5.05814 3.9311,-7.82362 7.2348,-11.41874 z"
     id="path9-0"
     style="stroke-width:2.97363" /><path
     fill="#313138"
     d="m 1579.84,488.35628 0.4937,-2.33727 c 5.6409,-3.33047 13.8184,-6.25949 20.4794,-4.02035 0.8891,0.29736 1.6384,0.92183 2.4562,1.38274 -0.9189,4.5556 -4.1363,5.81047 -4.8619,10.48502 -2.3997,4.1155 -2.5395,4.56452 -6.8185,6.55388 l -5.9651,-0.38063 -0.054,-1.40058 c -0.2022,-2.90821 -0.012,-6.61038 -1.6652,-9.0993 -0.9902,-1.49277 -2.4532,-1.04672 -4.065,-1.18351 z"
     id="path10-8"
     style="stroke-width:2.97363" /><path
     fill="#f3722c"
     d="m 1636.0357,509.13601 c -2.3194,-9.45615 -8.57,-17.96073 -7.7641,-27.87778 4.6834,10.82698 11.1154,20.50318 16.1527,31.06551 3.4346,3.88951 6.7353,7.73441 9.7743,11.9421 -5.7569,1.61468 -11.7666,0.11894 -17.7317,0.77314 -2.3789,-4.16605 1.8942,-10.12818 -0.4312,-15.90297 z"
     id="path11-4"
     style="stroke-width:2.97363" /><path
     fill="#313138"
     d="m 1563.8598,471.58501 c 0.5114,-4.44558 0.3954,-10.72291 2.9409,-14.46969 1.1924,-1.75741 2.8011,-1.78715 4.7459,-2.06369 12.4684,-1.77526 36.5637,2.72087 46.6206,10.22928 -19.0075,-0.1576 -35.7996,2.09046 -54.3074,6.3041 z"
     id="path12-0"
     style="stroke-width:2.97363" /><path
     fill="url(#gradient_0)"
     d="m 1473.8391,415.01467 c 11.7904,7.88309 17.7942,18.69819 23.1467,31.55022 -3.7884,13.06018 -8.6681,24.16966 -15.7484,35.76682 7.0684,8.13287 14.5589,16.34307 20.1404,25.60295 3.6725,6.09594 6.5688,14.22585 10.7854,19.69435 9.138,11.84992 22.4806,20.72918 32.0379,32.31444 7.9069,9.58401 11.6447,19.12044 21.3239,27.82723 9.8278,2.86955 19.9352,6.3487 29.6738,1.10619 9.9825,-5.37632 13.5598,-22.00486 22.2071,-25.16286 l 6.432,1.78121 4.1185,3.07176 c 0.562,0.29439 1.0883,0.66014 1.683,0.87722 9.5335,3.4732 21.8859,-2.41459 32.5791,0.66014 l 0.571,1.23406 -4.4486,5.43282 0.3241,2.62869 c 3.8806,-0.0625 5.5369,-1.73363 8.7722,-3.69919 -0.1189,0.59769 -0.2587,1.19242 -0.3538,1.79309 -0.4253,2.64653 -1.0527,7.64223 0.5977,9.80109 3.8895,5.08788 10.7824,9.22123 15.7483,13.34268 12.7301,10.55936 18.6625,28.73418 17.4017,44.95533 -0.7612,9.78325 -4.3831,27.0422 -12.6825,33.17679 -2.1975,1.62361 -1.6623,1.12106 -4.6865,1.21027 l -0.1724,-4.84999 c -6.881,1.81986 -6.0157,10.9162 -14.3716,8.65921 l -2.2689,-3.44644 c -0.3628,0.24384 -0.7226,0.49363 -1.0883,0.73152 -15.6294,10.06871 -46.7455,9.50075 -64.7776,8.18045 l -4.5199,1.37679 c -0.9753,3.22639 -0.8594,5.08194 -0.6899,8.40051 -3.5297,2.9766 -4.6418,4.65373 -6.3308,8.9536 l -0.5948,0.0238 c -1.7663,13.75304 -4.5288,27.24737 -7.2943,40.82496 -6.3279,9.76541 -12.5398,19.53675 -18.3592,29.61439 l -1.7663,0.35088 c -3.8955,4.85594 -6.2119,9.59888 -8.7336,15.27257 -16.6909,-15.28743 -32.5017,-25.93303 -53.9446,-33.55147 0.6661,-13.80359 -3.7646,-34.59521 0.5561,-47.03391 l -5.8462,-6.07215 c -19.8549,-18.89147 -39.7485,-37.10793 -54.0814,-60.76018 2.3611,-3.6308 3.9847,-6.92558 4.7697,-11.19274 2.0816,-11.32359 1.9031,-24.22914 -4.6032,-34.07483 -7.5292,-1.69199 -15.0911,-7.03858 -20.9373,-11.97183 -23.0813,-19.46836 -36.2545,-48.59804 -39.1508,-78.13808 -1.3292,-15.4599 0.2141,-29.47165 2.7239,-44.75016 27.3782,-22.69474 59.4607,-37.57479 91.8584,-51.51219 z"
     id="path13-2"
     style="fill:url(#gradient_0-6);stroke-width:2.97363" /><path
     fill="#f3dfc5"
     d="m 1581.6896,650.25854 c 6.2714,1.37679 13.5152,4.86486 19.8252,6.92558 1.2371,2.45325 0.91,1.41248 1.4779,4.10361 0.1309,0.63041 0.2409,1.2638 0.3628,1.89421 l 3.158,1.21621 c 1.8377,-1.51655 2.3492,-1.86149 4.7548,-2.5038 l 3.3573,2.94687 c -1.1538,1.83771 -1.7069,3.59512 -3.7676,4.53181 -3.5297,1.60576 -7.1813,0.99617 -10.5921,-0.60959 -7.0743,-3.33641 -16.0219,-11.07975 -18.5763,-18.5049 z"
     id="path14-8"
     style="stroke-width:2.97363" /><path
     fill="#f9c74f"
     d="m 1439.3449,601.38693 c -10.1906,-17.64849 -20.9284,-29.3527 -19.3107,-51.64303 0.672,-9.25096 4.2404,-17.93991 11.4247,-24.00314 6.9702,-5.88482 16.2598,-7.96041 25.2074,-6.93153 8.9655,1.03482 18.1005,4.70131 23.7266,12.03428 4.7489,6.18812 5.3764,12.12349 4.401,19.63785 l -3.4405,9.36693 c 0.9397,4.55263 1.7009,8.9536 3.6933,13.19103 3.2234,7.00587 7.437,14.49942 9.8665,21.76697 -3.5208,6.43791 -6.2833,11.10056 -13.8244,13.08397 -14.098,3.71109 -27.9492,-5.78966 -41.7439,-6.50333 z"
     id="path15-5"
     style="stroke-width:2.97363" /><path
     fill="#803133"
     d="m 1457.0499,529.60945 2.5157,2.15588 c -2.9082,5.42688 -8.4808,7.89202 -12.0551,12.73903 -1.5433,3.07176 -3.2204,6.0335 -4.8172,9.06363 -1.3322,2.5365 -1.9151,5.29603 -0.9754,8.06746 1.3857,4.09171 4.1423,7.89201 5.8224,11.94507 -3.2948,-2.64059 -6.3071,-6.05729 -8.3916,-9.73864 -2.9945,-5.27522 -4.3594,-10.74967 -2.3522,-16.64043 3.2532,-9.54536 11.6953,-13.66383 20.2534,-17.592 z"
     id="path16-2"
     style="stroke-width:2.97363" /><path
     fill="#f3722c"
     d="m 1457.0499,529.60945 c 5.4864,-1.66523 8.8644,-1.4095 13.9999,1.52845 5.0522,2.89334 11.7577,9.48885 13.075,15.25769 0.3063,1.34706 0.4728,2.72087 0.6691,4.08577 l -3.4405,9.36693 c -5.5012,-1.51655 -10.6664,-2.90523 -16.3609,-3.40778 l -2.816,1.62063 -0.1457,3.71109 c 2.9141,3.57133 5.7064,7.27945 9.0993,10.41663 -0.7732,1.25487 -1.2579,2.72384 -1.8258,4.08577 l 3.2412,2.73574 -1.8585,2.57516 c -2.1291,0.45199 -2.5454,0.64528 -4.9749,0.59175 -5.6082,-0.12192 -14.6659,-4.26121 -18.1718,-8.59676 -1.6801,-4.05306 -4.4367,-7.85336 -5.8224,-11.94507 -0.9397,-2.77143 -0.3568,-5.53096 0.9754,-8.06746 1.5968,-3.03013 3.2739,-5.99187 4.8172,-9.06363 3.5743,-4.84701 9.1469,-7.31215 12.0551,-12.73903 z"
     id="path17-8"
     style="stroke-width:2.97363" /><path
     fill="#c47958"
     d="m 1494.9132,594.80629 2.7089,12.77471 c 4.969,24.21725 24.4582,45.8058 44.6699,58.93735 q 6.1554,3.92816 12.6469,7.27647 6.4884,3.34831 13.2594,6.08702 6.768,2.73872 13.759,4.84405 6.9939,2.1083 14.1485,3.56538 l 2.9201,0.61554 1.7574,0.34791 -4.5199,1.37679 c -0.9753,3.22639 -0.8594,5.08194 -0.6899,8.40051 -3.5297,2.9766 -4.6418,4.65373 -6.3308,8.9536 l -0.5948,0.0238 c -28.3268,-20.58049 -62.7882,-36.97709 -93.8299,-53.32908 l -2.0934,-1.72471 c -2.9499,0.99022 -1.9477,0.0892 -3.4375,3.1015 -7.0743,14.30613 2.5603,36.14745 3.9727,51.35756 -19.8549,-18.89147 -39.7485,-37.10793 -54.0814,-60.76018 2.3611,-3.6308 3.9847,-6.92558 4.7697,-11.19274 2.0816,-11.32359 1.9031,-24.22914 -4.6032,-34.07483 13.7947,0.71367 27.6459,10.21442 41.7439,6.50333 7.5411,-1.98341 10.3036,-6.64606 13.8244,-13.08397 z"
     id="path18-9"
     style="stroke-width:2.97363" /><path
     fill="#f9c74f"
     d="m 1493.2598,707.41468 c -1.4124,-15.21011 -11.047,-37.05143 -3.9727,-51.35756 1.4898,-3.01229 0.4876,-2.11128 3.4375,-3.1015 l 2.0934,1.72471 c 31.0417,16.35199 65.5031,32.74859 93.8299,53.32908 -1.7663,13.75304 -4.5288,27.24737 -7.2943,40.82496 -6.3279,9.76541 -12.5398,19.53675 -18.3592,29.61439 l -1.7663,0.35088 c -3.8955,4.85594 -6.2119,9.59888 -8.7336,15.27257 -16.6909,-15.28743 -32.5017,-25.93303 -53.9446,-33.55147 0.6661,-13.80359 -3.7646,-34.59521 0.5561,-47.03391 z"
     id="path19-5"
     style="stroke-width:2.97363" /><path
     fill="#f3722c"
     d="m 1493.2598,707.41468 c -1.4124,-15.21011 -11.047,-37.05143 -3.9727,-51.35756 1.4898,-3.01229 0.4876,-2.11128 3.4375,-3.1015 l 2.0934,1.72471 c 0.9218,2.92902 1.9656,5.27522 3.4375,7.96933 5.4804,10.0241 30.4678,71.22141 29.8761,79.46728 l -29.0256,-28.63011 z"
     id="path20-0"
     style="stroke-width:2.97363" /><path
     fill="#d8dcd0"
     d="m 1499.106,713.48683 29.0256,28.63011 c 10.2352,13.09587 22.5877,23.97044 33.0965,36.6827 -3.8955,4.85594 -6.2119,9.59888 -8.7336,15.27257 -16.6909,-15.28743 -32.5017,-25.93303 -53.9446,-33.55147 0.6661,-13.80359 -3.7646,-34.59521 0.5561,-47.03391 z"
     id="path21-4"
     style="stroke-width:2.97363" /><path
     fill="#2d6a52"
     d="m 1753.1581,1139.3761 c 5.3168,16.1289 2.9677,68.7592 5.3198,90.3745 16.7267,-6.4646 75.0871,-25.032 85.5097,-33.5306 7.7998,-2.9082 16.5334,-7.7136 24.6603,-4.4099 3.3126,7.6868 -1.2876,15.3201 -4.1274,22.6977 28.2168,17.7972 251.6732,170.6061 256.0177,179.3664 3.0182,2.7238 5.9413,5.5666 9.3431,7.8117 l 0.9248,2.1172 c 10.4226,34.066 -12.6112,49.3683 -16.8724,74.8969 -2.6703,4.9748 -4.7251,10.0479 -9.7089,13.0839 -4.1839,0.3539 -4.7697,-0.045 -8.5521,-1.9834 -7.8088,-4.6478 -14.663,-9.6375 -20.7143,-16.462 l -0.5234,-0.223 q -9.1439,14.5886 -18.1362,29.2694 c -103.3247,-69.3896 -209.8728,-134.0363 -314.8687,-200.8241 -0.4728,-21.764 2.3818,-44.3784 4.1214,-66.1305 z"
     id="path22-7"
     style="stroke-width:2.97363" /><path
     fill="#d8dcd0"
     d="m 2120.5382,1393.8742 c 3.0182,2.7238 5.9413,5.5666 9.3431,7.8117 l 0.9248,2.1172 c 10.4226,34.066 -12.6112,49.3683 -16.8724,74.8969 -2.6703,4.9748 -4.7251,10.0479 -9.7089,13.0839 -4.1839,0.3539 -4.7697,-0.045 -8.5521,-1.9834 -7.8088,-4.6478 -14.663,-9.6375 -20.7143,-16.462 13.8333,-26.8578 30.331,-53.3172 45.5798,-79.4643 z"
     id="path23-7"
     style="stroke-width:2.97363" /><path
     fill="#c47958"
     d="m 2130.8061,1403.8031 c 10.4226,34.066 -12.6112,49.3683 -16.8724,74.8969 -2.6703,4.9748 -4.7251,10.0479 -9.7089,13.0839 -4.1839,0.3539 -4.7697,-0.045 -8.5521,-1.9834 2.022,-1.4749 3.2591,-2.6881 4.6805,-4.7518 -1.1865,-3.9401 -2.5425,-7.6988 -1.7872,-11.8678 2.2094,-12.183 25.8438,-54.3223 32.2401,-69.3778 z"
     id="path24-9"
     style="stroke-width:2.97363" /><path
     fill="#295250"
     d="m 1753.1581,1139.3761 c 5.3168,16.1289 2.9677,68.7592 5.3198,90.3745 16.7267,-6.4646 75.0871,-25.032 85.5097,-33.5306 7.7998,-2.9082 16.5334,-7.7136 24.6603,-4.4099 3.3126,7.6868 -1.2876,15.3201 -4.1274,22.6977 -24.0239,19.2899 -58.6608,38.5918 -72.9342,66.5082 14.7819,14.9455 35.7163,26.2155 53.1536,38.1011 57.0997,38.9219 116.1351,74.9415 173.9276,112.8404 17.0687,11.1927 38.3539,22.2546 53.1418,35.9928 1.8526,1.7247 2.0429,2.7506 2.6257,5.1652 q -9.1439,14.5886 -18.1362,29.2694 c -103.3247,-69.3896 -209.8728,-134.0363 -314.8687,-200.8241 -0.4728,-21.764 2.3818,-44.3784 4.1214,-66.1305 z"
     id="path25-9"
     style="stroke-width:2.97363" /><path
     fill="#577590"
     d="m 1434.4236,216.24475 c 20.1315,-7.47838 79.3632,-31.02091 97.8384,-21.33044 16.2033,8.49834 58.6935,116.66859 69.1607,140.29705 16.1378,-3.78543 48.5682,-7.33 63.3799,1.94178 3.5535,2.22725 5.6529,5.21872 6.7174,9.2926 1.469,5.62016 -1.0824,11.84397 -4.3028,16.33415 -3.9222,5.46553 -9.7535,10.56828 -15.5937,13.91658 -5.98,3.14908 -9.8695,5.20386 -16.7089,5.21278 l 7.2884,26.6467 c -46.6087,0.85938 -109.3939,4.09171 -145.2172,38.00894 -5.3525,-12.85203 -11.3563,-23.66713 -23.1467,-31.55022 -32.3977,13.9374 -64.4802,28.81745 -91.8584,51.51219 -2.5098,15.27851 -4.0531,29.29026 -2.7239,44.75016 q -3.381,-0.33602 -6.7442,-0.82072 c -15.2726,-2.13507 -41.4316,-8.24885 -50.6439,-21.50529 -2.813,-4.04414 -3.7884,-8.91792 -2.8487,-13.74709 4.0144,-20.61023 33.1916,-38.79993 49.1184,-49.90644 -10.4731,-21.79373 -68.1229,-114.0506 -61.5422,-133.54721 6.7947,-20.14158 53.3261,-41.19131 72.6903,-50.96474 17.6129,-9.20815 36.9177,-16.48462 55.1371,-24.54078 z"
     id="path26-6"
     style="stroke-width:2.97363" /><path
     fill="#43475f"
     d="m 1500.2508,381.70407 c 32.93,-11.20167 72.5626,-20.35747 107.2202,-22.88209 8.0913,-0.58877 50.8134,-0.24978 55.7139,3.94304 -4.1065,7.53518 -9.8308,9.24204 -17.2024,12.45356 l 5.641,1.47789 c -5.98,3.14908 -9.8695,5.20386 -16.7089,5.21278 l 7.2884,26.6467 c -46.6087,0.85938 -109.3939,4.09171 -145.2172,38.00894 -5.3525,-12.85203 -11.3563,-23.66713 -23.1467,-31.55022 -32.3977,13.9374 -64.4802,28.81745 -91.8584,51.51219 -2.5098,15.27851 -4.0531,29.29026 -2.7239,44.75016 q -3.381,-0.33602 -6.7442,-0.82072 c -15.2726,-2.13507 -41.4316,-8.24885 -50.6439,-21.50529 -2.813,-4.04414 -3.7884,-8.91792 -2.8487,-13.74709 4.0144,-20.61023 33.1916,-38.79993 49.1184,-49.90644 25.1777,-13.26833 50.0373,-26.89351 75.4797,-39.70985 15.552,-6.38736 31.4134,-12.00157 47.2034,-17.76744 0.1992,4.10361 0.559,4.64481 -2.3403,7.83551 -9.1469,10.07466 -29.7512,12.26325 -42.0233,17.96965 16.8277,-0.29736 38.4817,-4.91244 53.7929,-11.92128 z"
     id="path27-1"
     style="stroke-width:2.97363" /><path
     fill="#f3722c"
     d="m 1473.8391,415.01467 c 23.9347,-10.10737 50.1026,-17.80907 75.3963,-23.67604 15.9149,-3.69028 74.3051,-16.53338 85.6792,-9.42938 l 7.2884,26.6467 c -46.6087,0.85938 -109.3939,4.09171 -145.2172,38.00894 -5.3525,-12.85203 -11.3563,-23.66713 -23.1467,-31.55022 z"
     id="path28-0"
     style="stroke-width:2.97363" /><path
     fill="#43aa8b"
     d="m 1434.4236,216.24475 c 20.1315,-7.47838 79.3632,-31.02091 97.8384,-21.33044 16.2033,8.49834 58.6935,116.66859 69.1607,140.29705 -34.845,7.50842 -72.8391,14.30019 -105.7215,28.57361 -20.298,-48.58019 -34.0183,-102.27146 -61.2776,-147.54022 z"
     id="path29-8"
     style="stroke-width:2.97363" /><path
     fill="#43aa8b"
     d="m 734.6809,614.67014 11.3771,-7.69278 c 16.4471,23.73254 37.3696,45.24972 56.2878,67.0494 l 92.1944,106.53922 c 15.9447,18.35027 43.2902,44.59553 52.6511,66.33276 5.2782,2.74169 10.3929,3.02716 15.5848,5.18304 29.4895,-1.60873 71.8935,-23.59873 100.6158,-34.62792 71.4593,-27.4466 143.659,-52.86519 214.9964,-80.64187 q 37.6224,-14.61837 74.9979,-29.85227 c 16.6196,-6.7323 33.5901,-14.73137 51.0691,-18.87363 4.4545,-12.57251 6.6937,-23.95557 19.4238,-30.44997 5.409,-3.03905 10.3334,-7.24971 15.2993,-10.98162 14.3329,23.65225 34.2265,41.86871 54.0814,60.76018 l 5.8462,6.07215 c -4.3207,12.4387 0.11,33.23032 -0.5561,47.03391 21.4429,7.61844 37.2537,18.26404 53.9446,33.55147 2.5217,-5.67369 4.8381,-10.41663 8.7336,-15.27257 l 1.7663,-0.35088 c 5.8194,-10.07764 12.0313,-19.84898 18.3592,-29.61439 2.7655,-13.57759 5.528,-27.07192 7.2943,-40.82496 l 0.5948,-0.0238 c 1.689,-4.29987 2.8011,-5.977 6.3308,-8.9536 39.3471,25.49293 81.3883,46.08532 122.9477,67.6709 14.0564,7.30026 28.8621,13.99687 42.4635,22.06433 5.2454,16.62854 8.118,34.28001 11.4009,51.3992 -7.7285,12.39409 -3.4584,37.46476 -3.7647,52.21397 -1.2489,60.21006 -7.6541,121.13079 -11.6596,181.28139 -1.3916,20.9255 -5.6945,45.0386 -3.8032,65.7143 l -7.6066,96.0542 c -1.7396,21.7521 -4.5942,44.3665 -4.1214,66.1305 104.9959,66.7878 211.544,131.4345 314.8687,200.8241 q 8.9923,-14.6808 18.1362,-29.2694 l 0.5234,0.223 c 6.0513,6.8245 12.9055,11.8142 20.7143,16.462 3.7824,1.9388 4.3682,2.3373 8.5521,1.9834 4.9838,-3.036 7.0386,-8.1091 9.7089,-13.0839 16.5631,11.2195 36.421,34.1313 46.2013,51.637 5.0195,6.9018 13.3962,22.442 22.1209,24.4492 3.7765,0.8683 9.8635,-1.5314 13.3962,-2.9171 -2.8399,19.9679 -16.8724,70.2312 -16.5661,85.593 l -0.5264,0.5858 q -29.6976,151.1674 -57.8787,302.6233 c -7.1665,39.6653 -16.7178,79.8836 -22.1,119.7689 -11.6329,53.0615 -19.3762,106.7177 -29.3676,160.0765 l -70.6921,386.6819 c -10.9013,60.7364 -20.4943,121.8237 -32.3918,182.3698 -0.3806,1.7782 -0.7761,3.5653 -1.0675,5.3614 -2.2629,13.9196 13.9017,8.6919 18.9837,15.8941 -0.3004,2.471 -0.5739,4.3652 -2.0578,6.4795 -3.3394,4.7548 -9.5899,6.8512 -15.0584,7.8534 -13.7055,2.5097 -25.0677,1.6057 -36.5132,-6.6223 -3.8598,-2.7744 -6.0365,-5.192 -6.881,-9.8784 4.6715,-6.994 10.6337,-6.0662 17.815,-8.3202 3.5475,-3.5743 4.0739,-6.7918 5.1473,-11.6448 l 0.4134,-1.9358 c -22.0346,-0.1279 -43.7659,-5.6529 -65.7975,-4.6983 -42.85,-12.9175 -66.1068,-36.1148 -100.247,-63.8231 -8.0437,-6.5301 -15.9238,-14.8651 -24.9756,-19.8043 l -2.6346,0.9486 c -6.7947,-0.5175 -12.6736,-0.9695 -19.1472,-3.3573 -10.6843,2.3135 -21.3655,4.8262 -32.1003,6.9048 l -7.5233,1.0675 c -6.7412,0.8386 -13.5033,1.8467 -20.2713,2.4414 -7.1694,-11.8024 -118.2136,-411.8032 -119.1682,-430.6381 -1.463,-28.8502 29.1654,-75.2686 25.1837,-105.6323 -2.8339,-21.6272 -11.5704,-43.6351 -17.1668,-64.7686 -15.6086,-58.9314 -31.7108,-118.3743 -49.5555,-176.6634 -12.8699,23.4352 -23.6374,48.3155 -36.0255,72.0838 -18.8291,36.1236 -41.8271,72.1729 -54.4769,110.9253 -1.1984,5.0314 -1.7307,9.9914 -5.6232,13.7054 -2.7417,0.6245 -4.0174,0.8089 -6.8929,0.4996 -19.7389,-7.6452 -62.1042,-11.3414 -84.7484,-14.9752 -29.6858,-4.7667 -59.0771,-10.6486 -88.6737,-15.8435 -55.2143,-8.341 -109.1441,-16.911 -162.8568,-32.6207 2.8131,-36.5489 13.7531,-77.8288 20.9166,-114.2796 q 12.8788,-66.6301 28.3684,-132.6982 15.4926,-66.0711 33.5752,-131.482 18.0797,-65.408 38.7256,-130.0547 20.643,-64.6438 43.8165,-128.4281 c 15.7364,-42.5884 30.5838,-86.9073 50.7331,-127.5539 3.3126,-6.3873 5.9175,-13.2683 8.7514,-19.8876 -11.1155,-36.4984 -30.3965,-72.3841 -46.0824,-107.1964 -25.6356,-56.8885 -50.5666,-114.229 -77.2222,-170.6329 q -144.7712,0.9665 -289.4977,4.6865 C 863.9535,983.85224 838.7133,947.72263 817.8325,923.1664 L 633.6934,704.91089 c 11.3177,-9.27773 22.6234,-18.45733 32.7992,-29.00776 -2.0251,-2.96769 -3.842,-6.03647 -5.6945,-9.11121 0.1189,-5.19195 0.9634,-5.44769 4.1511,-9.30746 14.3508,-6.55388 48.9876,-37.68779 62.9905,-48.96974 z"
     id="path30-3"
     style="stroke-width:2.97363" /><path
     fill="#d8dcd0"
     d="m 727.9397,608.51472 6.7412,6.15542 c -21.7611,21.19008 -44.3636,42.39801 -68.1883,61.23299 -2.0251,-2.96769 -3.842,-6.03647 -5.6945,-9.11121 0.1189,-5.19195 0.9634,-5.44769 4.1511,-9.30746 14.3508,-6.55388 48.9876,-37.68779 62.9905,-48.96974 z"
     id="path31-7"
     style="stroke-width:2.97363" /><path
     fill="#295250"
     d="m 947.1913,846.89874 c 5.2782,2.74169 10.3929,3.02716 15.5848,5.18304 1.3739,5.28117 2.8874,10.66047 3.6338,16.0695 4.4724,32.35607 -15.3618,65.17899 -33.9856,89.73523 8.9685,-27.5715 16.9467,-54.67019 16.6702,-83.91584 -0.086,-9.06065 -1.579,-18.01127 -1.9032,-27.07193 z"
     id="path32-7"
     style="stroke-width:2.97363" /><path
     fill="#90be6d"
     d="m 1439.1784,646.6545 c 14.3329,23.65225 34.2265,41.86871 54.0814,60.76018 l 5.8462,6.07215 c -4.3207,12.4387 0.11,33.23032 -0.5561,47.03391 -8.1656,15.16551 -8.8079,33.34034 -10.0271,50.17109 -0.3776,-4.0263 -0.8237,-8.04367 -0.9069,-12.08781 -6.1376,21.50232 6.9345,36.70649 5.858,56.50492 -7.9515,-12.82527 -9.0844,-28.94532 -16.4798,-41.8479 l -1.0378,0.45794 c 6.42,20.3991 12.7717,40.77144 20.4645,60.73937 -2.1291,4.91243 5.2604,53.95057 6.3309,65.21765 l 19.5397,227.56 c 1.9091,22.8196 7.4132,55.7645 5.8372,77.9478 -23.0902,-55.0211 -53.5759,-106.795 -82.3279,-158.9822 -32.7724,-59.4874 -64.7121,-119.18307 -99.6642,-177.45135 28.761,-11.27898 55.7734,-25.48401 83.0892,-39.85556 -21.5678,-18.17483 -45.6482,-33.63176 -69.018,-49.34442 17.6158,-42.31476 33.1828,-86.98165 44.2476,-131.46418 4.4545,-12.57251 6.6937,-23.95557 19.4238,-30.44997 5.409,-3.03905 10.3334,-7.24971 15.2993,-10.98162 z"
     id="path33-1"
     style="stroke-width:2.97363" /><path
     fill="#bdd3bb"
     d="m 1439.1784,646.6545 c 14.3329,23.65225 34.2265,41.86871 54.0814,60.76018 l 5.8462,6.07215 c -4.3207,12.4387 0.11,33.23032 -0.5561,47.03391 -8.1656,15.16551 -8.8079,33.34034 -10.0271,50.17109 -0.3776,-4.0263 -0.8237,-8.04367 -0.9069,-12.08781 -6.1376,21.50232 6.9345,36.70649 5.858,56.50492 -7.9515,-12.82527 -9.0844,-28.94532 -16.4798,-41.8479 l -1.0378,0.45794 c -11.2701,-21.97215 -49.4366,-132.12433 -52.0772,-156.08286 5.409,-3.03905 10.3334,-7.24971 15.2993,-10.98162 z"
     id="path34-0"
     style="stroke-width:2.97363" /><path
     fill="#f8961e"
     d="m 1596.7392,710.84328 1.1775,-3.07176 c 4.8917,4.36529 10.0479,11.5466 12.7629,17.55631 2.8517,11.79936 9.575,23.05753 11.6893,34.80931 6.6847,16.05166 1.4125,35.95416 3.048,52.87114 1.2311,2.57517 2.4978,5.12952 3.604,7.76118 3.4702,1.60873 3.7319,1.92394 5.2009,5.66774 4.279,10.90132 6.0959,23.18539 9.025,34.53574 4.2285,16.39957 10.259,32.5553 13.2742,49.23141 6.4201,35.51109 7.8385,71.61394 10.1699,107.53535 q 5.9472,91.3618 9.5691,182.8426 c 1.3976,29.0018 0.6185,60.3112 5.186,88.858 q -0.065,42.2999 0.907,84.5909 c 0.3092,16.8277 1.4689,34.2502 0.2141,51.0156 -28.9216,-16.7297 -57.7747,-34.1343 -88.6648,-47.0339 -15.8524,20.1076 -47.2658,37.3012 -67.989,53.3409 5.7272,-38.9456 5.1622,-96.4645 4.7191,-136.8435 l 12.4952,19.3138 c -2.5395,-23.123 -9.3758,-46.1181 -14.999,-68.6403 1.576,-22.1833 -3.9281,-55.1282 -5.8372,-77.9478 l -19.5397,-227.56 c -1.0705,-11.26708 -8.46,-60.30522 -6.3309,-65.21765 -7.6928,-19.96793 -14.0445,-40.34027 -20.4645,-60.73937 l 1.0378,-0.45794 c 7.3954,12.90258 8.5283,29.02263 16.4798,41.8479 1.0765,-19.79843 -11.9956,-35.0026 -5.858,-56.50492 0.083,4.04414 0.5293,8.06151 0.9069,12.08781 1.2192,-16.83075 1.8615,-35.00558 10.0271,-50.17109 21.4429,7.61844 37.2537,18.26404 53.9446,33.55147 2.5217,-5.67369 4.8381,-10.41663 8.7336,-15.27257 l 1.7663,-0.35088 c 5.8194,-10.07764 12.0313,-19.84898 18.3592,-29.61439 2.7655,-13.57759 5.528,-27.07192 7.2943,-40.82496 l 0.5948,-0.0238 z"
     id="path35-6"
     style="stroke-width:2.97363" /><path
     fill="#f3dfc5"
     d="m 1593.6258,1084.129 c 2.7357,0.7464 4.3415,0.7077 6.3814,2.8517 4.288,4.508 4.2285,9.4175 4.1006,15.2369 -4.4336,-1.1568 -7.5232,-1.7634 -10.7734,-5.2693 -1.5969,-4.7518 -0.7018,-8.0972 0.2914,-12.8193 z"
     id="path36-5"
     style="stroke-width:2.97363" /><path
     fill="#f3dfc5"
     d="m 1601.2323,1165.3596 c 4.1572,1.9626 6.6788,3.2532 8.7871,7.6809 1.8139,3.8093 0.8118,7.5471 -0.4847,11.2523 -5.2068,-1.4066 -6.9464,-2.2778 -10.0211,-6.5896 -0.681,-4.9481 0,-7.6868 1.7187,-12.3436 z"
     id="path37-7"
     style="stroke-width:2.97363" /><path
     fill="#f3dfc5"
     d="m 1599.921,1240.759 c 4.6805,0.5709 7.5619,0.7107 11.1213,4.1839 2.037,4.6091 1.1062,8.8466 0.5472,13.6728 -4.5259,-0.5561 -5.6767,-0.6215 -9.3194,-3.2621 -2.6316,-4.8589 -2.3402,-9.1707 -2.3491,-14.5946 z"
     id="path38-7"
     style="stroke-width:2.97363" /><path
     fill="#f3dfc5"
     d="m 1608.1906,1310.1011 c 3.051,0.8683 6.5807,1.7693 8.231,4.7072 2.8547,5.085 0.6394,10.7795 -0.7612,16.013 -4.9898,-1.7038 -6.087,-2.4056 -9.025,-6.6282 -0.8356,-5.183 0.2528,-9.0666 1.5552,-14.092 z"
     id="path39-5"
     style="stroke-width:2.97363" /><path
     fill="#d8dcd0"
     d="m 1596.7392,710.84328 1.1775,-3.07176 c 4.8917,4.36529 10.0479,11.5466 12.7629,17.55631 2.8517,11.79936 9.575,23.05753 11.6893,34.80931 6.6847,16.05166 1.4125,35.95416 3.048,52.87114 1.2311,2.57517 2.4978,5.12952 3.604,7.76118 3.3097,61.86934 -9.4353,119.51911 -28.2673,178.06691 -7.7404,24.05963 -16.5691,48.15793 -22.9862,72.60113 -0.9724,-8.4242 -0.7612,-21.7045 -4.2552,-29.0939 -0.1904,2.7654 0.2765,8.1269 -1.5463,10.0835 -9.251,-18.8736 -16.8278,-38.9337 -25.5673,-58.1166 -17.6931,-38.85047 -37.8484,-78.82795 -49.9778,-119.85215 -7.6928,-19.96793 -14.0445,-40.34027 -20.4645,-60.73937 l 1.0378,-0.45794 c 7.3954,12.90258 8.5283,29.02263 16.4798,41.8479 1.0765,-19.79843 -11.9956,-35.0026 -5.858,-56.50492 0.083,4.04414 0.5293,8.06151 0.9069,12.08781 1.2192,-16.83075 1.8615,-35.00558 10.0271,-50.17109 21.4429,7.61844 37.2537,18.26404 53.9446,33.55147 2.5217,-5.67369 4.8381,-10.41663 8.7336,-15.27257 l 1.7663,-0.35088 c 5.8194,-10.07764 12.0313,-19.84898 18.3592,-29.61439 2.7655,-13.57759 5.528,-27.07192 7.2943,-40.82496 l 0.5948,-0.0238 z"
     id="path40-1"
     style="stroke-width:2.97363" /><path
     fill="#43475f"
     d="m 1596.7392,710.84328 1.1775,-3.07176 c 4.8917,4.36529 10.0479,11.5466 12.7629,17.55631 2.8517,11.79936 9.575,23.05753 11.6893,34.80931 6.6847,16.05166 1.4125,35.95416 3.048,52.87114 -0.1487,11.40387 -2.5217,22.60851 -5.7927,33.48902 -20.6905,-6.37546 -37.4171,-22.73934 -53.5283,-36.52509 -13.8511,-3.91627 -42.2196,24.05072 -55.9042,30.55405 -5.1503,2.44432 -9.8754,4.29392 -15.5194,2.28672 -5.8164,-6.50631 -5.3198,-23.1854 -6.1495,-32.12115 1.2192,-16.83075 1.8615,-35.00558 10.0271,-50.17109 21.4429,7.61844 37.2537,18.26404 53.9446,33.55147 2.5217,-5.67369 4.8381,-10.41663 8.7336,-15.27257 l 1.7663,-0.35088 c 5.8194,-10.07764 12.0313,-19.84898 18.3592,-29.61439 2.7655,-13.57759 5.528,-27.07192 7.2943,-40.82496 l 0.5948,-0.0238 z"
     id="path41-9"
     style="stroke-width:2.97363" /><path
     fill="#d8dcd0"
     d="m 1581.3536,748.83437 c 4.1512,-2.26887 4.9838,-3.56538 9.7297,-2.55732 4.6032,4.67158 4.9987,10.88944 7.6482,16.58988 l 4.6597,2.6614 c -0.559,0.35684 -1.1181,0.70773 -1.6742,1.06754 -9.9259,6.49738 -33.9142,32.69506 -45.8444,29.22781 -1.3054,-0.37766 -2.254,-1.05564 -3.3781,-1.75147 2.5217,-5.67369 4.8381,-10.41663 8.7336,-15.27257 l 1.7663,-0.35088 c 5.8194,-10.07764 12.0313,-19.84898 18.3592,-29.61439 z"
     id="path42-1"
     style="stroke-width:2.97363" /><path
     fill="#d8dcd0"
     d="m 1596.7392,710.84328 1.1775,-3.07176 c 4.8917,4.36529 10.0479,11.5466 12.7629,17.55631 2.8517,11.79936 9.575,23.05753 11.6893,34.80931 -6.3011,1.70389 -12.8609,3.13123 -18.9777,5.39119 l -4.6597,-2.6614 c -2.6495,-5.70044 -3.045,-11.9183 -7.6482,-16.58988 -4.7459,-1.00806 -5.5785,0.28845 -9.7297,2.55732 2.7655,-13.57759 5.528,-27.07192 7.2943,-40.82496 l 0.5948,-0.0238 z"
     id="path43-4"
     style="stroke-width:2.97363" /><path
     fill="#90be6d"
     d="m 1588.6479,708.00941 0.5948,-0.0238 7.4965,2.85766 c 3.7557,13.45567 4.2285,38.22304 1.9923,52.02365 -2.6495,-5.70044 -3.045,-11.9183 -7.6482,-16.58988 -4.7459,-1.00806 -5.5785,0.28845 -9.7297,2.55732 2.7655,-13.57759 5.528,-27.07192 7.2943,-40.82496 z"
     id="path44-9"
     style="stroke-width:2.97363" /><path
     fill="#43475f"
     d="m 1595.5735,699.03202 c 39.3471,25.49293 81.3883,46.08532 122.9477,67.6709 14.0564,7.30026 28.8621,13.99687 42.4635,22.06433 5.2454,16.62854 8.118,34.28001 11.4009,51.3992 -7.7285,12.39409 -3.4584,37.46476 -3.7647,52.21397 -1.2489,60.21006 -7.6541,121.13078 -11.6596,181.28138 -1.3916,20.9255 -5.6945,45.0386 -3.8032,65.7143 l -7.6066,96.0542 c -1.7396,21.7521 -4.5942,44.3665 -4.1214,66.1305 -1.1478,21.8889 -4.2583,44.0216 -4.1066,65.9135 0.2349,34.0659 5.9829,68.9942 9.1231,102.9649 3.6278,39.2757 5.0462,78.7209 9.7624,117.9104 0.9308,43.3763 7.7701,87.5675 11.612,130.8724 5.3199,59.9871 9.4413,120.0038 14.0653,180.0355 4.847,62.9071 10.1252,124.3334 9.8546,187.5111 -18.7993,4.856 -37.9197,8.2638 -57.0788,11.3742 1.0199,50.4536 8.4362,586.4177 0.4579,597.4677 l -1.011,0.4103 c -10.6843,2.3135 -21.3655,4.8262 -32.1003,6.9048 l -7.5233,1.0675 c -6.7412,0.8386 -13.5033,1.8467 -20.2713,2.4414 -7.1694,-11.8024 -118.2136,-411.8032 -119.1682,-430.6381 -1.463,-28.8502 29.1654,-75.2686 25.1837,-105.6323 -2.8339,-21.6272 -11.5704,-43.6351 -17.1668,-64.7686 -15.6086,-58.9314 -31.7108,-118.3743 -49.5555,-176.6634 -12.8699,23.4352 -23.6374,48.3155 -36.0255,72.0838 -18.8291,36.1236 -41.8271,72.1729 -54.4769,110.9253 -1.0349,-20.527 6.304,-44.6996 10.2292,-65.0571 27.9194,-197.0357 67.5044,-392.4537 90.3449,-590.1674 0.6333,-8.4154 1.2994,-16.7862 2.3343,-25.1629 20.7232,-16.0397 52.1366,-33.2333 67.989,-53.3409 30.8901,12.8996 59.7432,30.3042 88.6648,47.0339 1.2548,-16.7654 0.095,-34.1879 -0.2141,-51.0156 q -0.9724,-42.291 -0.907,-84.5909 c -4.5675,-28.5468 -3.7884,-59.8562 -5.186,-88.858 q -3.6219,-91.4808 -9.5691,-182.8426 c -2.3314,-35.92141 -3.7498,-72.02426 -10.1699,-107.53535 -3.0152,-16.67611 -9.0457,-32.83184 -13.2742,-49.23141 -2.9291,-11.35035 -4.746,-23.63442 -9.025,-34.53574 -1.469,-3.7438 -1.7307,-4.05901 -5.2009,-5.66774 -1.1062,-2.63166 -2.3729,-5.18601 -3.604,-7.76118 -1.6355,-16.91698 3.6367,-36.81948 -3.048,-52.87114 -2.1143,-11.75178 -8.8376,-23.00995 -11.6893,-34.80931 -2.715,-6.00971 -7.8712,-13.19102 -12.7629,-17.55631 l -1.1775,3.07176 -7.4965,-2.85766 c 1.689,-4.29987 2.8011,-5.977 6.3308,-8.9536 z"
     id="path45-1"
     style="stroke-width:2.97363" /><path
     fill="#2f304a"
     d="m 1525.9133,1431.3538 c 20.7232,-16.0397 52.1366,-33.2333 67.989,-53.3409 30.8901,12.8996 59.7432,30.3042 88.6648,47.0339 q -1.1806,20.6459 -0.9129,41.3215 c -0.7762,2.6793 -1.3501,5.3288 -2.7566,7.7552 -10.3482,-5.1979 -67.4925,-54.8515 -79.9966,-65.7469 -25.4959,15.4539 -50.1443,32.1866 -75.322,48.1401 0.6333,-8.4154 1.2994,-16.7862 2.3343,-25.1629 z"
     id="path46-2"
     style="stroke-width:2.97363" /><path
     fill="#2f304a"
     d="m 1433.2341,2046.6841 c 0.3093,-0.339 0.6245,-0.672 0.9248,-1.0199 12.8788,-14.9604 100.7734,-250.9179 112.8909,-286.9286 q 18.4455,-54.4412 32.4661,-110.1849 c 6.5004,-25.4304 12.4447,-51.3575 16.8843,-77.2341 2.254,-13.1375 0.7285,-28.8977 5.3585,-41.3245 l 0.8445,-0.062 c 2.4949,93.1787 2.2421,186.5031 3.2621,279.7026 q 1.4095,107.0923 4.282,214.1549 c 0.6631,37.4469 0.2171,74.989 0.1516,112.4448 -0.033,18.1927 -1.1805,37.0931 0.7583,55.1876 13.6341,127.3249 39.02,253.9421 60.3588,380.1489 q 6.5568,40.028 14.1723,79.8687 c 3.2264,16.9943 8.121,35.3356 8.8971,52.5559 -6.7412,0.8386 -13.5033,1.8467 -20.2713,2.4414 -7.1694,-11.8024 -118.2136,-411.8032 -119.1682,-430.6381 -1.463,-28.8502 29.1654,-75.2686 25.1837,-105.6323 -2.8339,-21.6272 -11.5704,-43.6351 -17.1668,-64.7686 -15.6086,-58.9314 -31.7108,-118.3743 -49.5555,-176.6634 -12.8699,23.4352 -23.6374,48.3155 -36.0255,72.0838 -18.8291,36.1236 -41.8271,72.1729 -54.4769,110.9253 -1.0349,-20.527 6.304,-44.6996 10.2292,-65.0571 z"
     id="path47-5"
     style="stroke-width:2.97363" /><path
     fill="#43aa8b"
     d="m 1595.5735,699.03202 c 39.3471,25.49293 81.3883,46.08532 122.9477,67.6709 14.0564,7.30026 28.8621,13.99687 42.4635,22.06433 5.2454,16.62854 8.118,34.28001 11.4009,51.3992 -7.7285,12.39409 -3.4584,37.46476 -3.7647,52.21397 -1.2489,60.21006 -7.6541,121.13078 -11.6596,181.28138 -1.3916,20.9255 -5.6945,45.0386 -3.8032,65.7143 l -7.6066,96.0542 c -1.7396,21.7521 -4.5942,44.3665 -4.1214,66.1305 -1.1478,21.8889 -4.2583,44.0216 -4.1066,65.9135 0.2349,34.0659 5.9829,68.9942 9.1231,102.9649 3.6278,39.2757 5.0462,78.7209 9.7624,117.9104 0.9308,43.3763 7.7701,87.5675 11.612,130.8724 5.3199,59.9871 9.4413,120.0038 14.0653,180.0355 4.847,62.9071 10.1252,124.3334 9.8546,187.5111 -18.7993,4.856 -37.9197,8.2638 -57.0788,11.3742 q -41.155,7.5679 -82.994,8.4124 c 0.077,-34.2087 3.9044,-69.0596 6.084,-103.2326 l 8.4689,-156.3861 c 6.5063,-126.7956 9.0993,-253.7875 15.4332,-380.5682 q -0.2677,-20.6756 0.9129,-41.3215 c 1.2548,-16.7654 0.095,-34.1879 -0.2141,-51.0156 q -0.9724,-42.291 -0.907,-84.5909 c -4.5675,-28.5468 -3.7884,-59.8562 -5.186,-88.858 q -3.6219,-91.4808 -9.5691,-182.8426 c -2.3314,-35.92141 -3.7498,-72.02426 -10.1699,-107.53535 -3.0152,-16.67611 -9.0457,-32.83184 -13.2742,-49.23141 -2.9291,-11.35035 -4.746,-23.63442 -9.025,-34.53574 -1.469,-3.7438 -1.7307,-4.05901 -5.2009,-5.66774 -1.1062,-2.63166 -2.3729,-5.18601 -3.604,-7.76118 -1.6355,-16.91698 3.6367,-36.81948 -3.048,-52.87114 -2.1143,-11.75178 -8.8376,-23.00995 -11.6893,-34.80931 -2.715,-6.00971 -7.8712,-13.19102 -12.7629,-17.55631 l -1.1775,3.07176 -7.4965,-2.85766 c 1.689,-4.29987 2.8011,-5.977 6.3308,-8.9536 z"
     id="path48-0"
     style="stroke-width:2.97363" /><path
     fill="#90be6d"
     d="m 1610.6796,725.32783 c 30.5986,30.32805 60.8375,64.71808 86.8567,99.00106 -12.1175,16.14087 -23.0813,33.61392 -35.7876,49.20763 31.3004,12.79256 63.9063,27.54176 93.1162,44.52714 -10.2768,85.18554 -26.9619,170.25224 -45.2021,254.06394 -8.4451,38.8059 -15.9565,79.5446 -28.2168,117.3127 -4.5675,-28.5468 -3.7884,-59.8562 -5.186,-88.858 q -3.6219,-91.4808 -9.5691,-182.8426 c -2.3314,-35.92141 -3.7498,-72.02426 -10.1699,-107.53535 -3.0152,-16.67611 -9.0457,-32.83184 -13.2742,-49.23141 -2.9291,-11.35035 -4.746,-23.63442 -9.025,-34.53574 -1.469,-3.7438 -1.7307,-4.05901 -5.2009,-5.66774 -1.1062,-2.63166 -2.3729,-5.18601 -3.604,-7.76118 -1.6355,-16.91698 3.6367,-36.81948 -3.048,-52.87114 -2.1143,-11.75178 -8.8376,-23.00995 -11.6893,-34.80931 z"
     id="path49-0"
     style="stroke-width:2.97363" /><path
     fill="#f8961e"
     d="m 1741.4301,1301.5608 c 104.9959,66.7878 211.544,131.4345 314.8687,200.8241 q 8.9923,-14.6808 18.1362,-29.2694 l 0.5234,0.223 c 6.0513,6.8245 12.9055,11.8142 20.7143,16.462 3.7824,1.9388 4.3682,2.3373 8.5521,1.9834 4.9838,-3.036 7.0386,-8.1091 9.7089,-13.0839 16.5631,11.2195 36.421,34.1313 46.2013,51.637 5.0195,6.9018 13.3962,22.442 22.1209,24.4492 3.7765,0.8683 9.8635,-1.5314 13.3962,-2.9171 -2.8399,19.9679 -16.8724,70.2312 -16.5661,85.593 l -0.5264,0.5858 q -29.6976,151.1674 -57.8787,302.6233 c -7.1665,39.6653 -16.7178,79.8836 -22.1,119.7689 -11.6329,53.0615 -19.3762,106.7177 -29.3676,160.0765 l -70.6921,386.6819 c -10.9013,60.7364 -20.4943,121.8237 -32.3918,182.3698 -0.3806,1.7782 -0.7761,3.5653 -1.0675,5.3614 -2.2629,13.9196 13.9017,8.6919 18.9837,15.8941 -0.3004,2.471 -0.5739,4.3652 -2.0578,6.4795 -3.3394,4.7548 -9.5899,6.8512 -15.0584,7.8534 -13.7055,2.5097 -25.0677,1.6057 -36.5132,-6.6223 -3.8598,-2.7744 -6.0365,-5.192 -6.881,-9.8784 4.6715,-6.994 10.6337,-6.0662 17.815,-8.3202 3.5475,-3.5743 4.0739,-6.7918 5.1473,-11.6448 l 0.4134,-1.9358 c -22.0346,-0.1279 -43.7659,-5.6529 -65.7975,-4.6983 -42.85,-12.9175 -66.1068,-36.1148 -100.247,-63.8231 -8.0437,-6.5301 -15.9238,-14.8651 -24.9756,-19.8043 l -2.6346,0.9486 c -6.7947,-0.5175 -12.6736,-0.9695 -19.1472,-3.3573 l 1.011,-0.4103 c 7.9783,-11.05 0.562,-547.0141 -0.4579,-597.4677 19.1591,-3.1104 38.2795,-6.5182 57.0788,-11.3742 0.2706,-63.1777 -5.0076,-124.604 -9.8546,-187.5111 -4.624,-60.0317 -8.7454,-120.0484 -14.0653,-180.0355 -3.8419,-43.3049 -10.6812,-87.4961 -11.612,-130.8724 -4.7162,-39.1895 -6.1346,-78.6347 -9.7624,-117.9104 -3.1402,-33.9707 -8.8882,-68.899 -9.1231,-102.9649 -0.1517,-21.8919 2.9588,-44.0246 4.1066,-65.9135 z"
     id="path50-1"
     style="fill:#ffffff;fill-opacity:1;stroke-width:2.97363" /><path
     fill="#2f304a"
     d="m 2080.7807,2032.8716 q 24.131,-135.095 51.0454,-269.6636 c 8.2904,-42.4248 13.4646,-87.3088 25.2312,-128.8266 7.1962,1.912 14.1307,2.8814 21.5023,3.6665 q -29.6976,151.1674 -57.8787,302.6233 c -7.1665,39.6653 -16.7178,79.8836 -22.1,119.7689 -11.6329,53.0615 -19.3762,106.7177 -29.3676,160.0765 l -70.6921,386.6819 c -10.9013,60.7364 -20.4943,121.8237 -32.3918,182.3698 -0.3806,1.7782 -0.7761,3.5653 -1.0675,5.3614 -2.2629,13.9196 13.9017,8.6919 18.9837,15.8941 -0.3004,2.471 -0.5739,4.3652 -2.0578,6.4795 -3.3394,4.7548 -9.5899,6.8512 -15.0584,7.8534 -13.7055,2.5097 -25.0677,1.6057 -36.5132,-6.6223 -3.8598,-2.7744 -6.0365,-5.192 -6.881,-9.8784 4.6715,-6.994 10.6337,-6.0662 17.815,-8.3202 3.5475,-3.5743 4.0739,-6.7918 5.1473,-11.6448 l 0.4134,-1.9358 c 12.9947,-85.3878 29.3378,-170.3325 44.1554,-255.42 q 42.2821,-249.6986 89.7144,-498.4636 z"
     id="path51-8"
     style="stroke-width:2.97363" /><path
     fill="#2d6a52"
     d="m 2160.135,1530.337 c 5.0195,6.9018 13.3962,22.442 22.1209,24.4492 3.7765,0.8683 9.8635,-1.5314 13.3962,-2.9171 -2.8399,19.9679 -16.8724,70.2312 -16.5661,85.593 l -0.5264,0.5858 c -7.3716,-0.7851 -14.3061,-1.7545 -21.5023,-3.6665 -2.1321,-2.8041 -6.536,-4.8797 -9.5334,-6.7472 -1.6712,-2.5722 -2.7507,-4.2166 -3.1194,-7.3448 -1.6979,-14.3597 12.6498,-71.6318 15.7305,-89.9524 z"
     id="path53-6"
     style="stroke-width:2.97363" /><path
     fill="#577590"
     d="m 1237.0667,2095.1275 c 29.5966,5.1949 58.9879,11.0768 88.6737,15.8435 22.6442,3.6338 65.0095,7.33 84.7484,14.9752 l -3.4048,10.375 q -50.8312,196.5688 -107.5859,391.5111 -14.9038,53.1834 -30.9466,106.0337 c -7.7849,25.5524 -17.3243,51.8661 -22.2873,78.0727 -14.4816,0.024 -29.0197,-0.9159 -43.4894,-1.5225 l -2.3253,-0.6483 c -4.401,0.5204 -8.9685,0.4847 -13.4052,0.6483 -5.9918,-19.1978 -0.2349,-441.2421 4.633,-474.2554 3.1609,-21.4309 12.0669,-42.7489 19.055,-63.1688 z"
     id="path55-2"
     style="stroke-width:2.97363" /><path
     fill="#2f304a"
     d="m 1237.0667,2095.1275 c 29.5966,5.1949 58.9879,11.0768 88.6737,15.8435 22.6442,3.6338 65.0095,7.33 84.7484,14.9752 l -3.4048,10.375 c -16.0546,-6.1554 -35.9839,-7.5173 -53.1387,-8.3143 -18.6685,30.0753 -39.1241,59.0117 -59.1128,88.2157 -14.7403,21.5351 -31.0953,43.3139 -41.4792,67.3676 -12.0878,27.9908 -13.1434,65.1285 -17.1519,95.1889 q -16.4769,121.6096 -27.0481,243.8734 c -2.7536,28.9066 -7.107,58.1701 -8.7038,87.1154 -4.401,0.5204 -8.9685,0.4847 -13.4052,0.6483 -5.9918,-19.1978 -0.2349,-441.2421 4.633,-474.2554 3.1609,-21.4309 12.0669,-42.7489 19.055,-63.1688 z"
     id="path56-3"
     style="stroke-width:2.97363" /><path
     fill="#2f304a"
     d="m 1200.4495,2709.7679 2.3253,0.6483 c 14.4697,0.6066 29.0078,1.5463 43.4894,1.5225 -0.4818,6.8244 -1.2192,13.4824 -2.3046,20.2385 0.018,4.6537 0.4044,9.0398 -0.9456,13.53 1.3054,12.7688 31.6275,90.6303 38.3122,108.8408 -11.8558,-0.08 -45.6333,-3.7557 -54.3728,3.0658 -1.8674,1.4541 -3.5118,3.9966 -4.9184,5.9086 -7.5678,3.2472 -16.7683,0.6869 -24.6454,-0.5679 l -5.4953,-12.073 c -14.4518,-2.2124 -29.088,-4.0501 -43.3139,-7.4668 8.7247,-19.1145 37.0515,-74.0404 39.8229,-90.1723 -2.7923,-5.5161 -3.2888,-11.4188 -3.045,-17.5058 0.9605,-0.3003 2.2332,-1.4808 3.0628,-2.0875 1.8348,-7.5322 0.4163,-15.7929 -1.3768,-23.2329 4.4367,-0.1636 9.0042,-0.1279 13.4052,-0.6483 z"
     id="path58-0"
     style="stroke-width:2.97363" /><path
     fill="#f6c195"
     d="m 1200.4495,2709.7679 2.3253,0.6483 c -0.068,7.098 0.024,14.2228 -0.6006,21.2971 3.0212,1.6087 5.7599,1.1449 9.0666,1.1538 2.1915,0.01 1.3321,-0.1725 3.1639,0.6869 -6.1643,0.2944 -10.8091,0.08 -15.2726,5.0046 -4.0471,4.4604 -7.095,9.8903 -10.7288,14.6838 -2.7923,-5.5161 -3.2888,-11.4188 -3.045,-17.5058 0.9605,-0.3003 2.2332,-1.4808 3.0628,-2.0875 1.8348,-7.5322 0.4163,-15.7929 -1.3768,-23.2329 4.4367,-0.1636 9.0042,-0.1279 13.4052,-0.6483 z"
     id="path59-3"
     style="stroke-width:2.97363" /><path
     fill="#f3dfc5"
     d="m 1202.7748,2710.4162 c 14.4697,0.6066 29.0078,1.5463 43.4894,1.5225 -0.4818,6.8244 -1.2192,13.4824 -2.3046,20.2385 0.018,4.6537 0.4044,9.0398 -0.9456,13.53 -8.7217,-9.5216 -16.2539,-11.163 -28.6093,-12.1532 -1.8318,-0.8594 -0.9724,-0.681 -3.1639,-0.6869 -3.3067,-0.01 -6.0454,0.4549 -9.0666,-1.1538 0.6244,-7.0743 0.5322,-14.1991 0.6006,-21.2971 z"
     id="path60-0"
     style="stroke-width:2.97363" /><path
     fill="#2f304a"
     d="m 1734.109,2696.0208 c 6.4736,2.3878 12.3525,2.8398 19.1472,3.3573 l 2.6346,-0.9486 c 9.0518,4.9392 16.9319,13.2742 24.9756,19.8043 34.1402,27.7083 57.397,50.9056 100.247,63.8231 10.9489,5.8937 22.888,9.8635 33.9112,15.8702 l -6.9226,17.9102 c -28.2524,0.3866 -60.1208,0.8356 -87.8588,-4.6775 -28.1127,-5.5845 -56.0649,-16.3193 -84.0437,-23.3163 0.3003,7.0803 0.9307,14.1634 1.4392,21.2347 q -37.9762,-1.1418 -75.9614,-1.9031 c 0.2647,-11.8053 1.237,-23.6255 1.9923,-35.4129 1.5166,-14.0267 4.3713,-28.9989 9.8844,-42.0383 2.9647,-8.3083 2.373,-14.7075 0.6601,-23.2894 6.768,-0.5947 13.5301,-1.6028 20.2713,-2.4414 l 7.5233,-1.0675 c 10.7348,-2.0786 21.416,-4.5913 32.1003,-6.9048 z"
     id="path61-3"
     style="stroke-width:2.97363" /><path
     fill="#f3dfc5"
     d="m 1734.109,2696.0208 c 6.4736,2.3878 12.3525,2.8398 19.1472,3.3573 -5.6677,5.0046 -12.061,11.9391 -18.4425,15.8048 -7.0088,6.0573 -14.5945,11.948 -20.6934,18.9182 -8.2727,-1.4362 -16.5453,-3.0093 -24.8596,-4.169 l -15.7067,-0.2082 c 2.9647,-8.3083 2.373,-14.7075 0.6601,-23.2894 6.768,-0.5947 13.5301,-1.6028 20.2713,-2.4414 l 7.5233,-1.0675 c 10.7348,-2.0786 21.416,-4.5913 32.1003,-6.9048 z"
     id="path62-6"
     style="stroke-width:2.97363" /><path
     fill="#f9c74f"
     d="m 1694.4854,2703.9931 7.5233,-1.0675 -0.015,6.1792 c -7.1278,6.6282 -10.4018,11.3444 -12.7331,20.8273 l -15.7067,-0.2082 c 2.9647,-8.3083 2.373,-14.7075 0.6601,-23.2894 6.768,-0.5947 13.5301,-1.6028 20.2713,-2.4414 z"
     id="path63-9"
     style="stroke-width:2.97363" /><path
     fill="#f6c195"
     d="m 1734.109,2696.0208 c 6.4736,2.3878 12.3525,2.8398 19.1472,3.3573 -5.6677,5.0046 -12.061,11.9391 -18.4425,15.8048 l -1.7276,-2.2808 c -10.2501,-3.9341 -20.304,-3.8835 -31.0923,-3.7973 l 0.015,-6.1792 c 10.7348,-2.0786 21.416,-4.5913 32.1003,-6.9048 z"
     id="path64-8"
     style="stroke-width:2.97363" /></svg>
